<svg xmlns="http://www.w3.org/2000/svg" viewBox="0 0 640 640"><!--! Font Awesome Pro 7.2.0 by @fontawesome - https://fontawesome.com License - https://fontawesome.com/license (Commercial License) Copyright 2026 Fonticons, Inc. --><path fill="currentColor" d="M512 512L128 512C92.7 512 64 483.3 64 448L64 160C64 124.7 92.7 96 128 96L266.7 96C280.5 96 294 100.5 305.1 108.8L343.5 137.6C349 141.8 355.8 144 362.7 144L512 144C547.3 144 576 172.7 576 208L576 448C576 483.3 547.3 512 512 512zM352 232L352 382.5C352 392.2 359.8 400 369.5 400C373.7 400 377.7 398.5 380.9 395.8L432 352L483.1 395.8C486.3 398.5 490.3 400 494.5 400C504.2 400 512 392.2 512 382.5L512 232C512 218.7 501.3 208 488 208L376 208C362.7 208 352 218.7 352 232z"/></svg>